<svg xmlns="http://www.w3.org/2000/svg" width="20.459" height="16.616" viewBox="0 0 20.459 16.616">
  <path id="Icon_awesome-twitter" data-name="Icon awesome-twitter" d="M18.356,7.522c.013.182.013.364.013.545A11.848,11.848,0,0,1,6.439,20,11.849,11.849,0,0,1,0,18.115a8.674,8.674,0,0,0,1.013.052,8.4,8.4,0,0,0,5.206-1.791A4.2,4.2,0,0,1,2.3,13.467a5.288,5.288,0,0,0,.792.065,4.435,4.435,0,0,0,1.1-.143A4.194,4.194,0,0,1,.831,9.274V9.222a4.223,4.223,0,0,0,1.9.532,4.2,4.2,0,0,1-1.3-5.608,11.919,11.919,0,0,0,8.646,4.388,4.733,4.733,0,0,1-.1-.961A4.2,4.2,0,0,1,17.226,4.7a8.255,8.255,0,0,0,2.661-1.013A4.182,4.182,0,0,1,18.044,6a8.406,8.406,0,0,0,2.415-.649,9.013,9.013,0,0,1-2.1,2.168Z" transform="translate(0 -3.381)" fill="#fff"/>
</svg>
