<svg xmlns="http://www.w3.org/2000/svg" width="148.146" height="116.401" viewBox="0 0 148.146 116.401">
  <g id="Icon_ionic-logo-javascript" data-name="Icon ionic-logo-javascript" transform="translate(24.75 -2.25)">
    <path id="パス_2" data-name="パス 2" d="M33.45,2.813H7v70.27C7,90.47,1.033,95.324-9.344,95.324a39.528,39.528,0,0,1-12.649-2L-24.75,113.89a62.723,62.723,0,0,0,18.157,2.677c23.825,0,40.043-11.2,40.043-43.313V2.813Z" transform="translate(0 2.083)"/>
    <path id="パス_3" data-name="パス 3" d="M32.819,2.25C7.21,2.25-9,16.8-9,36.031-9,52.592,3.484,62.962,21.635,69.65c13.128,4.682,18.317,8.865,18.317,15.72,0,7.525-6,12.376-17.344,12.376A57.356,57.356,0,0,1-3.977,90.717V90.71L-9,111.616c6.164,3.518,17.672,7.029,30.147,7.029,29.989,0,43.926-16.055,43.926-34.953,0-16.055-8.915-26.422-28.2-33.784-14.265-5.685-20.261-8.861-20.261-16.052,0-5.688,5.188-10.869,15.887-10.869a45.75,45.75,0,0,1,21.992,5.718L60.816,7.541c-6.614-2.9-15.521-5.291-28-5.291Z" transform="translate(58.323 0)"/>
  </g>
</svg>
