<svg xmlns="http://www.w3.org/2000/svg" width="50" height="50" viewBox="0 0 58.305 40.942">
  <path id="Icon_awesome-desktop" data-name="Icon awesome-desktop" d="M53.446,0H4.859C2.176,0,0,1.719,0,3.838V29.427c0,2.119,2.176,3.838,4.859,3.838H24.294L22.674,37.1H15.386a2.214,2.214,0,0,0-2.429,1.919,2.214,2.214,0,0,0,2.429,1.919H42.919a2.214,2.214,0,0,0,2.429-1.919A2.214,2.214,0,0,0,42.919,37.1H35.631l-1.62-3.838H53.446c2.682,0,4.859-1.719,4.859-3.838V3.838C58.3,1.719,56.128,0,53.446,0Zm-1.62,28.148H6.478V5.118H51.826Z"/>
</svg>
