<svg xmlns="http://www.w3.org/2000/svg" width="137.599" height="137.599" viewBox="0 0 137.599 137.599">
  <path id="Icon_awesome-wordpress-simple" data-name="Icon awesome-wordpress-simple" d="M69.362.563a68.8,68.8,0,1,0,68.8,68.8A68.877,68.877,0,0,0,69.362.563ZM7.5,69.362A61.432,61.432,0,0,1,12.852,44.2l29.517,80.84A61.911,61.911,0,0,1,7.5,69.362Zm61.864,61.864A61.621,61.621,0,0,1,51.885,128.7l18.559-53.93,19,52.1a8.361,8.361,0,0,0,.444.86A61.932,61.932,0,0,1,69.362,131.226Zm8.517-90.854c3.717-.194,7.074-.583,7.074-.583a2.56,2.56,0,0,0-.388-5.1s-10.015.777-16.479.777c-6.075,0-16.284-.777-16.284-.777-3.329-.194-3.717,4.91-.388,5.1,0,0,3.163.388,6.492.583l9.626,26.41L53.993,107.369l-22.526-67c3.717-.194,7.074-.583,7.074-.583a2.56,2.56,0,0,0-.388-5.1s-10.015.777-16.479.777c-1.165,0-2.525-.028-3.995-.083a61.864,61.864,0,0,1,93.462-11.652,7.837,7.837,0,0,0-.8-.055c-6.075,0-10.375,5.3-10.375,10.986,0,5.1,2.941,9.4,6.075,14.509,2.358,4.106,5.1,9.4,5.1,17.061,0,5.3-2.025,11.43-4.716,20l-6.159,20.612L77.879,40.372Zm22.582,82.449L119.353,68.2c3.523-8.822,4.716-15.868,4.716-22.166a45.529,45.529,0,0,0-.416-6.353,61.868,61.868,0,0,1-23.192,83.142Z" transform="translate(-0.563 -0.563)"/>
</svg>
