<svg xmlns="http://www.w3.org/2000/svg" width="50" height="50" viewBox="0 0 67.666 54.133">
  <path id="Icon_awesome-laptop-code" data-name="Icon awesome-laptop-code" d="M26.964,27.664a1.692,1.692,0,0,0,2.393,0l1.2-1.2a1.692,1.692,0,0,0,0-2.393L26.776,20.3l3.776-3.777a1.692,1.692,0,0,0,0-2.393l-1.2-1.2a1.692,1.692,0,0,0-2.393,0L20.795,19.1a1.692,1.692,0,0,0,0,2.393l6.169,6.168Zm10.151-1.195,1.2,1.2a1.692,1.692,0,0,0,2.393,0L46.871,21.5a1.692,1.692,0,0,0,0-2.393L40.7,12.936a1.692,1.692,0,0,0-2.393,0l-1.2,1.2a1.692,1.692,0,0,0,0,2.393L40.89,20.3l-3.776,3.777a1.692,1.692,0,0,0,0,2.393ZM65.974,43.983H40.339a3.333,3.333,0,0,1-3.462,3.383H30.45a3.59,3.59,0,0,1-3.465-3.383H1.692A1.7,1.7,0,0,0,0,45.674v1.692a6.786,6.786,0,0,0,6.767,6.767H60.9a6.786,6.786,0,0,0,6.767-6.767V45.674A1.7,1.7,0,0,0,65.974,43.983ZM60.9,5.075A5.09,5.09,0,0,0,55.824,0H11.842A5.09,5.09,0,0,0,6.767,5.075V40.6H60.9ZM54.133,33.833h-40.6V6.767h40.6Z"/>
</svg>
