<svg xmlns="http://www.w3.org/2000/svg" width="50" height="50" viewBox="0 0 55.936 55.936">
  <path id="Icon_ionic-ios-contact" data-name="Icon ionic-ios-contact" d="M31.343,3.375h0A27.956,27.956,0,0,0,3.536,28.4a26.951,26.951,0,0,0,0,5.889A27.956,27.956,0,0,0,31.343,59.311h0a27.968,27.968,0,0,0,0-55.936ZM49.6,47.223c-3.052-1.156-8-2.851-11.08-3.765-.323-.094-.363-.121-.363-1.439a7.652,7.652,0,0,1,.887-3.133,15.627,15.627,0,0,0,1.237-4.249,9.447,9.447,0,0,0,1.829-4.424c.43-2.178.229-2.972-.054-3.711a2.381,2.381,0,0,1-.081-.229,24.18,24.18,0,0,1,.417-5.217,9.607,9.607,0,0,0-2-6.9c-1.224-1.573-3.577-3.5-7.866-3.765H30.173a10.265,10.265,0,0,0-7.8,3.765,9.566,9.566,0,0,0-2.017,6.9,24.18,24.18,0,0,1,.417,5.217c-.027.094-.054.161-.081.242-.282.74-.5,1.533-.054,3.711a9.593,9.593,0,0,0,1.829,4.424A16.273,16.273,0,0,0,23.706,38.9a7.512,7.512,0,0,1,.511,3.173c0,1.331-.054,1.345-.35,1.439-3.187.941-7.92,2.609-10.757,3.738A24.2,24.2,0,0,1,48.46,14.226a24.2,24.2,0,0,1,1.143,33Z" transform="translate(-3.375 -3.375)"/>
</svg>
